<?xml version="1.0" standalone="no"?>
<!DOCTYPE svg PUBLIC "-//W3C//DTD SVG 20010904//EN"
 "http://www.w3.org/TR/2001/REC-SVG-20010904/DTD/svg10.dtd">
<svg version="1.0" xmlns="http://www.w3.org/2000/svg"
 width="1285.000000pt" height="745.000000pt" viewBox="0 0 1285.000000 745.000000"
 preserveAspectRatio="xMidYMid meet">

<g transform="translate(0.000000,745.000000) scale(0.100000,-0.100000)"
fill="#000000" stroke="none">
<path d="M6560 6083 c-431 -31 -816 -160 -1161 -389 -222 -147 -433 -349 -594
-569 -82 -112 -198 -310 -240 -409 -15 -36 -31 -66 -34 -66 -3 0 -32 54 -65
120 -289 593 -864 1057 -1512 1221 -196 49 -285 61 -520 66 -242 6 -336 -2
-540 -43 -248 -50 -565 -177 -774 -310 -507 -323 -870 -824 -1016 -1400 -55
-219 -68 -331 -68 -579 0 -247 14 -362 69 -580 103 -409 308 -768 610 -1070
198 -199 379 -329 627 -452 362 -179 776 -262 1174 -234 417 29 800 156 1139
378 357 235 669 593 838 963 22 49 43 90 46 90 3 -1 31 -54 63 -118 203 -421
566 -795 988 -1020 354 -189 696 -272 1117 -272 378 0 682 70 1018 235 385
189 694 461 928 815 135 205 259 488 316 720 132 541 71 1107 -173 1599 -194
390 -457 688 -821 927 -253 166 -549 285 -859 345 -148 28 -403 43 -556 32z
m425 -418 c430 -66 816 -268 1116 -583 467 -490 644 -1185 469 -1840 -161
-602 -611 -1095 -1202 -1316 -335 -125 -728 -152 -1088 -74 -702 151 -1279
704 -1460 1400 -51 196 -63 316 -57 548 4 168 10 227 31 328 109 516 398 945
831 1234 150 100 281 164 455 221 155 52 241 72 390 92 127 17 370 13 515 -10z
m-4280 -29 c526 -92 999 -405 1295 -856 275 -419 374 -955 270 -1459 -149
-716 -709 -1297 -1429 -1481 -407 -104 -865 -64 -1252 110 -958 428 -1403
1520 -1018 2493 282 711 970 1195 1734 1220 109 3 301 -9 400 -27z"/>
<path d="M9348 5980 l-486 -5 -44 -30 c-55 -40 -84 -83 -97 -148 -20 -99 24
-194 111 -243 l53 -29 627 -3 628 -3 2 -1932 3 -1932 32 -47 c99 -142 314
-128 396 26 l22 41 0 1922 0 1922 625 3 c609 3 626 4 670 24 158 73 176 296
32 397 l-47 32 -550 6 c-618 7 -1256 7 -1977 -1z"/>
<path d="M12429 5942 c-69 -36 -106 -88 -119 -167 -14 -84 -14 -4003 0 -4076
14 -71 55 -127 120 -162 116 -61 251 -19 313 97 l22 41 3 2040 c2 2226 5 2104
-53 2174 -14 16 -49 41 -77 55 -72 36 -138 35 -209 -2z"/>
</g>
</svg>
